<svg xmlns="http://www.w3.org/2000/svg" viewBox="0 0 1200 630" width="1200" height="630">
  <defs>
    <radialGradient id="g1" cx="15%" cy="0%" r="60%">
      <stop offset="0%" stop-color="#1f3a2c" stop-opacity="0.9"/>
      <stop offset="100%" stop-color="#0d1410" stop-opacity="0"/>
    </radialGradient>
    <radialGradient id="g2" cx="100%" cy="100%" r="70%">
      <stop offset="0%" stop-color="#7ab895" stop-opacity="0.18"/>
      <stop offset="100%" stop-color="#0d1410" stop-opacity="0"/>
    </radialGradient>
    <linearGradient id="bar" x1="0" y1="1" x2="0" y2="0">
      <stop offset="0" stop-color="#7ab895" stop-opacity="0.4"/>
      <stop offset="1" stop-color="#7ab895" stop-opacity="1"/>
    </linearGradient>
  </defs>

  <rect width="1200" height="630" fill="#0d1410"/>
  <rect width="1200" height="630" fill="url(#g1)"/>
  <rect width="1200" height="630" fill="url(#g2)"/>

  <!-- subtle border frame -->
  <rect x="36" y="36" width="1128" height="558" rx="22" fill="none" stroke="#243029" stroke-width="1.5"/>

  <!-- waveform -->
  <g transform="translate(96, 380)">
    <g fill="url(#bar)">
      <rect x="0"   y="-30"  width="6" height="60"  rx="3"/>
      <rect x="14"  y="-44"  width="6" height="88"  rx="3"/>
      <rect x="28"  y="-62"  width="6" height="124" rx="3"/>
      <rect x="42"  y="-80"  width="6" height="160" rx="3"/>
      <rect x="56"  y="-100" width="6" height="200" rx="3"/>
      <rect x="70"  y="-72"  width="6" height="144" rx="3"/>
      <rect x="84"  y="-50"  width="6" height="100" rx="3"/>
      <rect x="98"  y="-30"  width="6" height="60"  rx="3"/>
      <rect x="112" y="-44"  width="6" height="88"  rx="3"/>
      <rect x="126" y="-66"  width="6" height="132" rx="3"/>
      <rect x="140" y="-94"  width="6" height="188" rx="3"/>
      <rect x="154" y="-120" width="6" height="240" rx="3"/>
      <rect x="168" y="-94"  width="6" height="188" rx="3"/>
      <rect x="182" y="-58"  width="6" height="116" rx="3"/>
      <rect x="196" y="-32"  width="6" height="64"  rx="3"/>
      <rect x="210" y="-22"  width="6" height="44"  rx="3"/>
    </g>
  </g>

  <!-- wordmark -->
  <g transform="translate(96, 96)">
    <g fill="none" stroke="#7ab895" stroke-width="2.4" stroke-linecap="round">
      <path d="M0 18h6"/>
      <path d="M14 9v18"/>
      <path d="M26 0v36"/>
      <path d="M38 -6v48" opacity="0.85"/>
      <path d="M50 0v36"/>
      <path d="M62 9v18"/>
      <path d="M76 18h-6"/>
    </g>
    <text x="100" y="28" font-family="Georgia, 'Times New Roman', serif" font-size="34" fill="#e9ece9" letter-spacing="-1">AfterBabel</text>
  </g>

  <!-- main copy -->
  <text x="96" y="240" font-family="Georgia, 'Times New Roman', serif" font-size="84" fill="#e9ece9" letter-spacing="-2">Hear them,</text>
  <text x="96" y="332" font-family="Georgia, 'Times New Roman', serif" font-size="84" fill="#a4afa7" letter-spacing="-2">not a translator.</text>

  <!-- subtitle -->
  <text x="96" y="510" font-family="Helvetica, Arial, sans-serif" font-size="26" fill="#a4afa7">Real-time interpretation that sounds like the actual person speaking.</text>
  <text x="96" y="546" font-family="Helvetica, Arial, sans-serif" font-size="26" fill="#a4afa7">Their voice, your language. Sub-second latency.</text>
</svg>
